<svg viewBox="0 0 1200 525" xmlns="http://www.w3.org/2000/svg" width="1200" height="525">
  <rect width="1200" height="525" fill="#6c3fd4"/>

  <!-- Decorative dots -->
  <circle cx="100" cy="60" r="8" fill="#f5c842" opacity="0.8"/>
  <circle cx="160" cy="40" r="5" fill="#f5c842" opacity="0.6"/>
  <circle cx="1100" cy="80" r="8" fill="#f5c842" opacity="0.8"/>
  <circle cx="1050" cy="50" r="5" fill="#f5c842" opacity="0.6"/>
  <circle cx="1140" cy="120" r="4" fill="#f5c842" opacity="0.5"/>

  <!-- Decorative arc line -->
  <path d="M 80 90 Q 300 30 500 90" fill="none" stroke="#f5c842" stroke-width="2" opacity="0.5"/>
  <path d="M 700 60 Q 900 20 1120 60" fill="none" stroke="#f5c842" stroke-width="2" opacity="0.5"/>

  <!-- Title -->
  <text x="60" y="200" font-family="Segoe UI, sans-serif" font-size="72" font-weight="700" fill="#ffffff">Dowry Calculator</text>
  <text x="62" y="255" font-family="Segoe UI, sans-serif" font-size="28" fill="#c9b8f0">calculate yours</text>

  <!-- Calculator illustration -->
  <rect x="860" y="100" width="260" height="320" rx="20" fill="#8b60e0"/>
  <rect x="885" y="125" width="210" height="80" rx="10" fill="#a87cf0"/>
  <text x="1075" y="185" font-family="Segoe UI, monospace" font-size="36" font-weight="700" fill="#fff" text-anchor="end">₹ ???</text>

  <!-- Calc buttons -->
  <rect x="885" y="225" width="45" height="35" rx="6" fill="#7a50cc"/>
  <rect x="940" y="225" width="45" height="35" rx="6" fill="#7a50cc"/>
  <rect x="995" y="225" width="45" height="35" rx="6" fill="#7a50cc"/>
  <rect x="1050" y="225" width="45" height="35" rx="6" fill="#f5c842"/>

  <rect x="885" y="272" width="45" height="35" rx="6" fill="#7a50cc"/>
  <rect x="940" y="272" width="45" height="35" rx="6" fill="#7a50cc"/>
  <rect x="995" y="272" width="45" height="35" rx="6" fill="#7a50cc"/>
  <rect x="1050" y="272" width="45" height="35" rx="6" fill="#f5c842"/>

  <rect x="885" y="319" width="45" height="35" rx="6" fill="#7a50cc"/>
  <rect x="940" y="319" width="45" height="35" rx="6" fill="#7a50cc"/>
  <rect x="995" y="319" width="45" height="35" rx="6" fill="#7a50cc"/>
  <rect x="1050" y="319" width="45" height="35" rx="6" fill="#4CAF50"/>

  <rect x="885" y="366" width="150" height="35" rx="6" fill="#7a50cc"/>
  <rect x="1050" y="366" width="45" height="35" rx="6" fill="#e05c5c"/>
</svg>
