<svg viewBox="0 0 1200 525" xmlns="http://www.w3.org/2000/svg" width="1200" height="525">
  <defs>
    <linearGradient id="guessBg" x1="0" y1="0" x2="1" y2="1">
      <stop offset="0%" stop-color="#FEF3E2"/>
      <stop offset="100%" stop-color="#FFFFFF"/>
    </linearGradient>
    <pattern id="guessDots" width="26" height="26" patternUnits="userSpaceOnUse">
      <circle cx="3" cy="3" r="2" fill="#101010" opacity="0.08"/>
    </pattern>
  </defs>

  <rect width="1200" height="525" fill="url(#guessBg)"/>
  <rect width="1200" height="525" fill="url(#guessDots)"/>

  <circle cx="970" cy="90" r="180" fill="#4CC9F0" opacity="0.18"/>
  <circle cx="1030" cy="455" r="140" fill="#FF5DA2" opacity="0.14"/>
  <circle cx="505" cy="435" r="95" fill="#A8E823" opacity="0.16"/>

  <g transform="translate(80 88)">
    <rect x="0" y="0" width="250" height="44" fill="#FFD60A" stroke="#101010" stroke-width="7"/>
    <text x="125" y="30" text-anchor="middle" font-family="Segoe UI, sans-serif" font-size="21" font-weight="800" fill="#101010">NO RULERS ALLOWED</text>
  </g>

  <text x="82" y="232" font-family="Segoe UI, sans-serif" font-size="86" font-weight="900" fill="#101010">Guess</text>
  <text x="82" y="320" font-family="Segoe UI, sans-serif" font-size="86" font-weight="900" fill="#101010">the Length</text>
  <text x="87" y="368" font-family="Segoe UI, sans-serif" font-size="25" fill="#666666">estimate strange sizes with your imagination</text>

  <g transform="translate(615 120) rotate(-2)">
    <rect x="0" y="134" width="410" height="58" fill="#FFD60A" stroke="#101010" stroke-width="9"/>
    <path d="M34 192v40M94 192v24M154 192v40M214 192v24M274 192v40M334 192v24M394 192v40" stroke="#101010" stroke-width="9" stroke-linecap="square"/>
    <path d="M18 163h378" stroke="#101010" stroke-width="8" stroke-linecap="round"/>
    <path d="M396 147l32 16-32 16" fill="none" stroke="#101010" stroke-width="8" stroke-linecap="round" stroke-linejoin="round"/>
    <path d="M18 147l-32 16 32 16" fill="none" stroke="#101010" stroke-width="8" stroke-linecap="round" stroke-linejoin="round"/>
  </g>

  <g transform="translate(788 68) rotate(6)">
    <rect x="0" y="0" width="170" height="122" rx="8" fill="#FFFFFF" stroke="#101010" stroke-width="8"/>
    <path d="M28 35h108M28 62h74M28 89h92" stroke="#101010" stroke-width="8" stroke-linecap="round"/>
    <circle cx="137" cy="88" r="20" fill="#FF5DA2" stroke="#101010" stroke-width="7"/>
    <text x="136" y="96" text-anchor="middle" font-family="Segoe UI, sans-serif" font-size="24" font-weight="900" fill="#101010">?</text>
  </g>

  <g transform="translate(700 328)">
    <rect x="0" y="0" width="112" height="82" rx="10" fill="#FFFFFF" stroke="#101010" stroke-width="6"/>
    <text x="56" y="35" text-anchor="middle" font-family="Segoe UI, sans-serif" font-size="18" font-weight="800" fill="#101010">YOU</text>
    <text x="56" y="62" text-anchor="middle" font-family="Segoe UI, sans-serif" font-size="22" font-weight="900" fill="#FF5DA2">?</text>
  </g>

  <g transform="translate(840 328)">
    <rect x="0" y="0" width="112" height="82" rx="10" fill="#FFFFFF" stroke="#101010" stroke-width="6"/>
    <text x="56" y="35" text-anchor="middle" font-family="Segoe UI, sans-serif" font-size="18" font-weight="800" fill="#101010">REAL</text>
    <text x="56" y="62" text-anchor="middle" font-family="Segoe UI, sans-serif" font-size="22" font-weight="900" fill="#4CC9F0">42</text>
  </g>

  <path d="M1028 345c36 18 56 46 64 83" fill="none" stroke="#101010" stroke-width="8" stroke-linecap="round" stroke-dasharray="2 18"/>
  <circle cx="1094" cy="444" r="18" fill="#A8E823" stroke="#101010" stroke-width="7"/>
</svg>
