<svg viewBox="0 0 1200 525" xmlns="http://www.w3.org/2000/svg" width="1200" height="525">
  <rect width="1200" height="525" fill="#f5f0e0"/>

  <!-- Title -->
  <text x="600" y="110" font-family="Georgia, serif" font-size="68" font-weight="700" fill="#1a1a1a" text-anchor="middle">Money Spent</text>
  <text x="600" y="155" font-family="Georgia, serif" font-size="24" fill="#666" text-anchor="middle">per hour in India</text>

  <!-- Currency note rows -->
  <!-- Row 1 -->
  <rect x="40" y="200" width="160" height="90" rx="8" fill="#8bc34a" opacity="0.85"/>
  <text x="120" y="252" font-family="Georgia, serif" font-size="28" font-weight="700" fill="#fff" text-anchor="middle">₹500</text>

  <rect x="220" y="200" width="160" height="90" rx="8" fill="#8bc34a" opacity="0.85"/>
  <text x="300" y="252" font-family="Georgia, serif" font-size="28" font-weight="700" fill="#fff" text-anchor="middle">₹500</text>

  <rect x="400" y="200" width="160" height="90" rx="8" fill="#8bc34a" opacity="0.85"/>
  <text x="480" y="252" font-family="Georgia, serif" font-size="28" font-weight="700" fill="#fff" text-anchor="middle">₹500</text>

  <rect x="580" y="200" width="160" height="90" rx="8" fill="#8bc34a" opacity="0.85"/>
  <text x="660" y="252" font-family="Georgia, serif" font-size="28" font-weight="700" fill="#fff" text-anchor="middle">₹500</text>

  <rect x="760" y="200" width="160" height="90" rx="8" fill="#8bc34a" opacity="0.85"/>
  <text x="840" y="252" font-family="Georgia, serif" font-size="28" font-weight="700" fill="#fff" text-anchor="middle">₹500</text>

  <rect x="940" y="200" width="160" height="90" rx="8" fill="#8bc34a" opacity="0.85"/>
  <text x="1020" y="252" font-family="Georgia, serif" font-size="28" font-weight="700" fill="#fff" text-anchor="middle">₹500</text>

  <rect x="1060" y="200" width="100" height="90" rx="8" fill="#8bc34a" opacity="0.6"/>

  <!-- Row 2 -->
  <rect x="40" y="310" width="160" height="90" rx="8" fill="#66bb6a" opacity="0.75"/>
  <text x="120" y="362" font-family="Georgia, serif" font-size="28" font-weight="700" fill="#fff" text-anchor="middle">₹100</text>

  <rect x="220" y="310" width="160" height="90" rx="8" fill="#66bb6a" opacity="0.75"/>
  <text x="300" y="362" font-family="Georgia, serif" font-size="28" font-weight="700" fill="#fff" text-anchor="middle">₹100</text>

  <rect x="400" y="310" width="160" height="90" rx="8" fill="#66bb6a" opacity="0.75"/>
  <text x="480" y="362" font-family="Georgia, serif" font-size="28" font-weight="700" fill="#fff" text-anchor="middle">₹100</text>

  <rect x="580" y="310" width="160" height="90" rx="8" fill="#66bb6a" opacity="0.75"/>
  <text x="660" y="362" font-family="Georgia, serif" font-size="28" font-weight="700" fill="#fff" text-anchor="middle">₹100</text>

  <rect x="760" y="310" width="160" height="90" rx="8" fill="#66bb6a" opacity="0.75"/>
  <text x="840" y="362" font-family="Georgia, serif" font-size="28" font-weight="700" fill="#fff" text-anchor="middle">₹100</text>

  <rect x="940" y="310" width="160" height="90" rx="8" fill="#66bb6a" opacity="0.75"/>
  <text x="1020" y="362" font-family="Georgia, serif" font-size="28" font-weight="700" fill="#fff" text-anchor="middle">₹100</text>

  <rect x="1060" y="310" width="100" height="90" rx="8" fill="#66bb6a" opacity="0.5"/>

  <!-- Bottom line graph -->
  <polyline points="40,470 200,450 380,460 560,430 740,445 920,420 1100,435 1160,415"
    fill="none" stroke="#c9a227" stroke-width="3"/>
</svg>
